<svg width="24" height="24" viewBox="0 0 24 24" fill="none" xmlns="http://www.w3.org/2000/svg">
<g clip-path="url(#clip0_456_4503)">
<path d="M23.2 0.799805L13.6 10.3998L23.2 0.799805ZM13.6 10.3998V4.7998V10.3998ZM13.6 10.3998H19.2H13.6ZM4.00005 0.799805H7.55081C8.28499 0.799805 8.92497 1.29948 9.10303 2.01175L10.0407 5.76239C10.2435 6.57349 9.78759 7.40396 8.99443 7.66834L7.22062 8.25961C6.29481 8.56822 5.74367 9.51792 5.93506 10.4749C6.70108 14.3049 9.69491 17.2988 13.525 18.0648C14.4819 18.2562 15.4316 17.705 15.7402 16.7792L16.2167 15.35C16.5246 14.4262 17.5792 13.9894 18.4501 14.4248L22.3156 16.3576C22.8576 16.6286 23.2 17.1826 23.2 17.7887V19.9998C23.2 21.7671 21.7674 23.1998 20 23.1998H16.8C7.96349 23.1998 0.800049 16.0364 0.800049 7.1998V3.9998C0.800049 2.23249 2.23274 0.799805 4.00005 0.799805Z" stroke="#8B8B8B" stroke-width="1.5" stroke-linecap="round" stroke-linejoin="round"/>
</g>
<defs>
<clipPath id="clip0_456_4503">
<rect width="24" height="24" fill="white"/>
</clipPath>
</defs>
</svg>
