<svg width="24" height="24" viewBox="0 0 24 24" fill="none" xmlns="http://www.w3.org/2000/svg">
<g clip-path="url(#clip0_456_4505)">
<path d="M4 0C1.79086 0 0 1.79086 0 4V7.2C0 16.4784 7.52162 24 16.8 24H20C22.2091 24 24 22.2091 24 20V17.7889C24 16.8798 23.4864 16.0488 22.6733 15.6422L18.8078 13.7095C17.5015 13.0563 15.9195 13.7116 15.4577 15.0972L14.9812 16.5264C14.8002 17.0695 14.2432 17.3928 13.6818 17.2805C10.1684 16.5778 7.42215 13.8316 6.71948 10.3182C6.60721 9.75685 6.9305 9.19978 7.47356 9.01876L9.24736 8.42749C10.4371 8.03091 11.1209 6.7852 10.8168 5.56856L9.8791 1.81791C9.612 0.749513 8.65204 0 7.55076 0H4Z" fill="#0F6EFF"/>
<path d="M22.6343 0.234375L14.4 8.46869V4.80006H12.8V11.2001H19.2V9.60006H15.5314L23.7657 1.36575L22.6343 0.234375Z" fill="#0F6EFF"/>
</g>
<defs>
<clipPath id="clip0_456_4505">
<rect width="24" height="24" fill="white"/>
</clipPath>
</defs>
</svg>
