<svg width="88" height="32" viewBox="0 0 88 32" fill="none" xmlns="http://www.w3.org/2000/svg">
<rect width="88" height="32" rx="5" fill="#F29A2E" fill-opacity="0.1"/>
<path d="M31.984 11.06H35.752C36.28 11.06 36.74 11.156 37.132 11.348C37.524 11.54 37.824 11.812 38.032 12.164C38.248 12.516 38.356 12.928 38.356 13.4C38.356 13.856 38.24 14.264 38.008 14.624C37.776 14.976 37.444 15.244 37.012 15.428L37 14.984C37.56 15.192 37.984 15.504 38.272 15.92C38.568 16.336 38.716 16.812 38.716 17.348C38.716 18.172 38.452 18.82 37.924 19.292C37.396 19.764 36.676 20 35.764 20H31.984V11.06ZM35.812 18.92C36.332 18.92 36.748 18.78 37.06 18.5C37.372 18.22 37.528 17.84 37.528 17.36C37.528 16.888 37.372 16.508 37.06 16.22C36.748 15.932 36.332 15.788 35.812 15.788H33.172V18.92H35.812ZM35.728 14.732C36.16 14.732 36.508 14.608 36.772 14.36C37.036 14.104 37.168 13.78 37.168 13.388C37.168 12.988 37.036 12.68 36.772 12.464C36.516 12.24 36.168 12.128 35.728 12.128H33.172V14.732H35.728ZM42.4646 20.144C42.0006 20.144 41.5806 20.036 41.2046 19.82C40.8366 19.604 40.5486 19.3 40.3406 18.908C40.1326 18.516 40.0286 18.072 40.0286 17.576V13.532H41.1566V17.456C41.1566 17.936 41.3006 18.324 41.5886 18.62C41.8766 18.916 42.2526 19.064 42.7166 19.064C43.1806 19.064 43.5566 18.912 43.8446 18.608C44.1326 18.296 44.2766 17.88 44.2766 17.36V13.532H45.4046V20H44.3126V18.74L44.4806 18.848C44.3286 19.256 44.0726 19.576 43.7126 19.808C43.3606 20.032 42.9446 20.144 42.4646 20.144ZM49.1498 19.508V20.48L46.3898 13.532H47.6018L49.7498 19.052H49.3898L51.5258 13.532H52.7618L49.1858 22.4H47.9498L49.1498 19.508ZM55.9488 11.06H59.1168C59.7088 11.06 60.2288 11.172 60.6768 11.396C61.1328 11.62 61.4848 11.944 61.7328 12.368C61.9808 12.784 62.1048 13.272 62.1048 13.832C62.1048 14.384 61.9768 14.868 61.7208 15.284C61.4728 15.7 61.1248 16.02 60.6768 16.244C60.2288 16.468 59.7088 16.58 59.1168 16.58H57.1368V20H55.9488V11.06ZM59.1528 15.5C59.5048 15.5 59.8128 15.432 60.0768 15.296C60.3408 15.16 60.5448 14.964 60.6888 14.708C60.8408 14.452 60.9168 14.156 60.9168 13.82C60.9168 13.484 60.8408 13.188 60.6888 12.932C60.5448 12.676 60.3408 12.48 60.0768 12.344C59.8128 12.208 59.5048 12.14 59.1528 12.14H57.1368V15.5H59.1528ZM63.5512 10.916H64.6792V20H63.5512V10.916ZM68.2952 20.144C67.8792 20.144 67.5032 20.068 67.1672 19.916C66.8392 19.756 66.5832 19.54 66.3992 19.268C66.2152 18.988 66.1232 18.668 66.1232 18.308C66.1232 17.78 66.2992 17.336 66.6512 16.976C67.0032 16.616 67.5352 16.38 68.2472 16.268L70.6352 15.872V16.808L68.4992 17.18C68.0912 17.244 67.7912 17.372 67.5992 17.564C67.4072 17.748 67.3112 17.984 67.3112 18.272C67.3112 18.536 67.4152 18.756 67.6232 18.932C67.8392 19.108 68.1072 19.196 68.4272 19.196C68.8192 19.196 69.1672 19.112 69.4712 18.944C69.7832 18.776 70.0232 18.544 70.1912 18.248C70.3592 17.944 70.4432 17.616 70.4432 17.264V15.608C70.4432 15.256 70.3112 14.972 70.0472 14.756C69.7912 14.532 69.4552 14.42 69.0392 14.42C68.6712 14.42 68.3472 14.516 68.0672 14.708C67.7872 14.892 67.5752 15.14 67.4312 15.452L66.4592 14.948C66.6432 14.5 66.9792 14.128 67.4672 13.832C67.9552 13.536 68.4872 13.388 69.0632 13.388C69.5512 13.388 69.9832 13.484 70.3592 13.676C70.7432 13.86 71.0392 14.124 71.2472 14.468C71.4632 14.804 71.5712 15.184 71.5712 15.608V20H70.4792V18.776L70.6832 18.86C70.4752 19.252 70.1592 19.564 69.7352 19.796C69.3112 20.028 68.8312 20.144 68.2952 20.144ZM73.2895 13.532H74.3935V14.792L74.2135 14.684C74.3735 14.276 74.6295 13.96 74.9815 13.736C75.3415 13.504 75.7615 13.388 76.2415 13.388C76.6975 13.388 77.1095 13.492 77.4775 13.7C77.8455 13.908 78.1335 14.2 78.3415 14.576C78.5575 14.944 78.6655 15.356 78.6655 15.812V20H77.5375V16.172C77.5375 15.82 77.4735 15.52 77.3455 15.272C77.2175 15.016 77.0335 14.82 76.7935 14.684C76.5615 14.548 76.2935 14.48 75.9895 14.48C75.5255 14.48 75.1455 14.632 74.8495 14.936C74.5615 15.24 74.4175 15.652 74.4175 16.172V20H73.2895V13.532Z" fill="#FF8C00"/>
<g clip-path="url(#clip0_338_3799)">
<path d="M14.3526 12.6721L18.1114 7.00171L22.1033 12.6721L18.1114 15.7909L14.3526 12.6721Z" fill="#FF8C00"/>
<path d="M10 9.46582L11.0345 18.3201H21.9198L10 9.46582Z" fill="#FEC400"/>
<path d="M26 9.66748L24.9894 18.3199H14.352L26 9.66748Z" fill="#EDA500"/>
<path d="M24.8562 19.0635H11.2356V22.0002H24.8562V19.0635Z" fill="#FF8C00"/>
</g>
<defs>
<clipPath id="clip0_338_3799">
<rect width="16" height="15" fill="white" transform="translate(10 7)"/>
</clipPath>
</defs>
</svg>
