<svg width="24" height="24" viewBox="0 0 24 24" fill="none" xmlns="http://www.w3.org/2000/svg">
<path d="M21.6 2.40005H22.35V1.65005H21.6V2.40005ZM2.40002 2.40005V1.65005H1.65002V2.40005H2.40002ZM7.20002 0.800049V0.0500488H6.45002V0.800049H7.20002ZM16.8 0.800049H17.55V0.0500488H16.8V0.800049ZM4.00002 23.95H20V22.45H4.00002V23.95ZM22.35 21.6V2.40005H20.85V21.6H22.35ZM21.6 1.65005H17.6V3.15005H21.6V1.65005ZM3.15002 21.6V2.40005H1.65002V21.6H3.15002ZM2.40002 3.15005H6.40002V1.65005H2.40002V3.15005ZM20 23.95C21.2979 23.95 22.35 22.8979 22.35 21.6H20.85C20.85 22.0695 20.4695 22.45 20 22.45V23.95ZM4.00002 22.45C3.53058 22.45 3.15002 22.0695 3.15002 21.6H1.65002C1.65002 22.8979 2.70215 23.95 4.00002 23.95V22.45ZM7.20002 1.55005H16.8V0.0500488H7.20002V1.55005ZM16.05 0.800049V4.00005H17.55V0.800049H16.05ZM15.2 4.85005H8.80002V6.35005H15.2V4.85005ZM7.95002 4.00005V0.800049H6.45002V4.00005H7.95002ZM8.80002 4.85005C8.33058 4.85005 7.95002 4.46949 7.95002 4.00005H6.45002C6.45002 5.29792 7.50215 6.35005 8.80002 6.35005V4.85005ZM16.05 4.00005C16.05 4.46949 15.6695 4.85005 15.2 4.85005V6.35005C16.4979 6.35005 17.55 5.29792 17.55 4.00005H16.05Z" fill="#8B8B8B"/>
<path d="M6.39996 14.4001H17.6M13.8666 19.2001H17.6M6.39996 9.6001H10.1333" stroke="#8B8B8B" stroke-width="1.5" stroke-linecap="round" stroke-linejoin="round"/>
</svg>
