<svg width="24" height="24" viewBox="0 0 24 24" fill="none" xmlns="http://www.w3.org/2000/svg">
<path fill-rule="evenodd" clip-rule="evenodd" d="M6.4001 0H17.6001V1.6H22.4001V21.6C22.4001 22.9255 21.3256 24 20.0001 24H4.0001C2.67461 24 1.6001 22.9255 1.6001 21.6V1.6H6.4001V0ZM8.0001 1.6H16.0001V4C16.0001 4.44183 15.6419 4.8 15.2001 4.8H8.8001C8.35827 4.8 8.0001 4.44183 8.0001 4V1.6ZM10.8835 8.84961H5.65014V10.3496H10.8835V8.84961ZM18.3501 13.6496H5.65014V15.1496H18.3501V13.6496ZM18.3501 18.4496H13.1168V19.9496H18.3501V18.4496Z" fill="#0F6EFF"/>
</svg>
